<svg xmlns="http://www.w3.org/2000/svg" width="771.729248046875" height="344.72674560546875" viewBox="-304.4619445800781 -75.44371032714844 771.729248046875 344.72674560546875"><title>Neo4j Graph Visualization</title><desc>Created using Neo4j (http://www.neo4j.com/)</desc><g class="layer relationships"><g class="relationship" transform="translate(432.1137310554135 94.59071496523715) rotate(186.83402545823793)"><path class="outline" fill="#A5ABB6" stroke="none" d="M 25 0.5 L 146.44360430243552 0.5 L 146.44360430243552 -0.5 L 25 -0.5 Z M 193.44360430243552 0.5 L 314.88720860487103 0.5 L 314.88720860487103 3.5 L 321.88720860487103 0 L 314.88720860487103 -3.5 L 314.88720860487103 -0.5 L 193.44360430243552 -0.5 Z"/><text text-anchor="middle" pointer-events="none" font-size="8px" fill="#000000" x="169.94360430243552" y="3" transform="rotate(180 169.94360430243552 0)" font-family="sans-serif">CONTAINS</text></g><g class="relationship" transform="translate(432.1137310554135 94.59071496523715) rotate(450.61651846632145)"><path class="outline" fill="#A5ABB6" stroke="none" d="M 25 0.5 L 40.15501577155471 0.5 L 40.15501577155471 -0.5 L 25 -0.5 Z M 70.48001653449415 0.5 L 85.63503230604887 0.5 L 85.63503230604887 3.5 L 92.63503230604887 0 L 85.63503230604887 -3.5 L 85.63503230604887 -0.5 L 70.48001653449415 -0.5 Z"/><text text-anchor="middle" pointer-events="none" font-size="8px" fill="#000000" x="55.317516153024435" y="3" transform="rotate(180 55.317516153024435 0)" font-family="sans-serif">STYLE</text></g><g class="relationship" transform="translate(432.1137310554135 94.59071496523715) rotate(519.6357779395557)"><path class="outline" fill="#A5ABB6" stroke="none" d="M 25 0.5 L 117.77226493532248 0.5 L 117.77226493532248 -0.5 L 25 -0.5 Z M 164.77226493532248 0.5 L 257.54452987064496 0.5 L 257.54452987064496 3.5 L 264.54452987064496 0 L 257.54452987064496 -3.5 L 257.54452987064496 -0.5 L 164.77226493532248 -0.5 Z"/><text text-anchor="middle" pointer-events="none" font-size="8px" fill="#000000" x="141.27226493532248" y="3" transform="rotate(180 141.27226493532248 0)" font-family="sans-serif">CONTAINS</text></g><g class="relationship" transform="translate(432.1137310554135 94.59071496523715) rotate(534.7600114705751)"><path class="outline" fill="#A5ABB6" stroke="none" d="M 25 0.5 L 123.49458587044495 0.5 L 123.49458587044495 -0.5 L 25 -0.5 Z M 170.49458587044495 0.5 L 268.9891717408899 0.5 L 268.9891717408899 3.5 L 275.9891717408899 0 L 268.9891717408899 -3.5 L 268.9891717408899 -0.5 L 170.49458587044495 -0.5 Z"/><text text-anchor="middle" pointer-events="none" font-size="8px" fill="#000000" x="146.99458587044495" y="3" transform="rotate(180 146.99458587044495 0)" font-family="sans-serif">CONTAINS</text></g><g class="relationship" transform="translate(317.83012163896433 23.399106970292237) rotate(532.5940243688955)"><path class="outline" fill="#A5ABB6" stroke="none" d="M 25 0.5 L 89.03750275788846 0.5 L 89.03750275788846 -0.5 L 25 -0.5 Z M 136.03750275788846 0.5 L 200.07500551577692 0.5 L 200.07500551577692 3.5 L 207.07500551577692 0 L 200.07500551577692 -3.5 L 200.07500551577692 -0.5 L 136.03750275788846 -0.5 Z"/><text text-anchor="middle" pointer-events="none" font-size="8px" fill="#000000" x="112.53750275788846" y="3" transform="rotate(180 112.53750275788846 0)" font-family="sans-serif">CONTAINS</text></g><g class="relationship" transform="translate(317.83012163896433 23.399106970292237) rotate(329.9190392645701)"><path class="outline" fill="#A5ABB6" stroke="none" d="M 25 0.5 L 36.86529626463522 0.5 L 36.86529626463522 -0.5 L 25 -0.5 Z M 67.19029702757467 0.5 L 79.05559329220989 0.5 L 79.05559329220989 3.5 L 86.05559329220989 0 L 79.05559329220989 -3.5 L 79.05559329220989 -0.5 L 67.19029702757467 -0.5 Z"/><text text-anchor="middle" pointer-events="none" font-size="8px" fill="#000000" x="52.027796646104946" y="3" font-family="sans-serif">STYLE</text></g><g class="relationship" transform="translate(317.83012163896433 23.399106970292237) rotate(492.4277868339537)"><path class="outline" fill="#A5ABB6" stroke="none" d="M 25 0.5 L 89.47654507909205 0.5 L 89.47654507909205 -0.5 L 25 -0.5 Z M 136.47654507909203 0.5 L 200.9530901581841 0.5 L 200.9530901581841 3.5 L 207.9530901581841 0 L 200.9530901581841 -3.5 L 200.9530901581841 -0.5 L 136.47654507909203 -0.5 Z"/><text text-anchor="middle" pointer-events="none" font-size="8px" fill="#000000" x="112.97654507909205" y="3" transform="rotate(180 112.97654507909205 0)" font-family="sans-serif">CONTAINS</text></g><g class="relationship" transform="translate(-262.6543715217924 78.78831674279105) rotate(355.84112322671604)"><path class="outline" fill="#A5ABB6" stroke="none" d="M 25 0.5 L 148.63524584585264 0.5 L 148.63524584585264 -0.5 L 25 -0.5 Z M 195.63524584585264 0.5 L 319.2704916917053 0.5 L 319.2704916917053 3.5 L 326.2704916917053 0 L 319.2704916917053 -3.5 L 319.2704916917053 -0.5 L 195.63524584585264 -0.5 Z"/><text text-anchor="middle" pointer-events="none" font-size="8px" fill="#000000" x="172.13524584585264" y="3" font-family="sans-serif">CONTAINS</text></g><g class="relationship" transform="translate(-262.6543715217924 78.78831674279105) rotate(451.97397246849994)"><path class="outline" fill="#A5ABB6" stroke="none" d="M 25 0.5 L 54.630568555111566 0.5 L 54.630568555111566 -0.5 L 25 -0.5 Z M 84.95556931805102 0.5 L 114.58613787316258 0.5 L 114.58613787316258 3.5 L 121.58613787316258 0 L 114.58613787316258 -3.5 L 114.58613787316258 -0.5 L 84.95556931805102 -0.5 Z"/><text text-anchor="middle" pointer-events="none" font-size="8px" fill="#000000" x="69.79306893658129" y="3" transform="rotate(180 69.79306893658129 0)" font-family="sans-serif">STYLE</text></g><g class="relationship" transform="translate(-262.6543715217924 78.78831674279105) rotate(340.95487520685117)"><path class="outline" fill="#A5ABB6" stroke="none" d="M 25 0.5 L 164.8895923308925 0.5 L 164.8895923308925 -0.5 L 25 -0.5 Z M 211.8895923308925 0.5 L 351.779184661785 0.5 L 351.779184661785 3.5 L 358.779184661785 0 L 351.779184661785 -3.5 L 351.779184661785 -0.5 L 211.8895923308925 -0.5 Z"/><text text-anchor="middle" pointer-events="none" font-size="8px" fill="#000000" x="188.3895923308925" y="3" font-family="sans-serif">CONTAINS</text></g><g class="relationship" transform="translate(-262.6543715217924 78.78831674279105) rotate(366.25393508223533)"><path class="outline" fill="#A5ABB6" stroke="none" d="M 25 0.5 L 171.70089429263842 0.5 L 171.70089429263842 -0.5 L 25 -0.5 Z M 218.70089429263842 0.5 L 365.40178858527685 0.5 L 365.40178858527685 3.5 L 372.40178858527685 0 L 365.40178858527685 -3.5 L 365.40178858527685 -0.5 L 218.70089429263842 -0.5 Z"/><text text-anchor="middle" pointer-events="none" font-size="8px" fill="#000000" x="195.20089429263842" y="3" font-family="sans-serif">CONTAINS</text></g><g class="relationship" transform="translate(250.15242716779673 -39.87550277113094) rotate(510.1611357792706)"><path class="outline" fill="#A5ABB6" stroke="none" d="M 25 0.5 L 66.64537972869171 0.5 L 66.64537972869171 -0.5 L 25 -0.5 Z M 113.64537972869171 0.5 L 155.29075945738342 0.5 L 155.29075945738342 3.5 L 162.29075945738342 0 L 155.29075945738342 -3.5 L 155.29075945738342 -0.5 L 113.64537972869171 -0.5 Z"/><text text-anchor="middle" pointer-events="none" font-size="8px" fill="#000000" x="90.14537972869171" y="3" transform="rotate(180 90.14537972869171 0)" font-family="sans-serif">CONTAINS</text></g><g class="relationship" transform="translate(250.15242716779673 -39.87550277113094) rotate(361.2959362657807)"><path class="outline" fill="#A5ABB6" stroke="none" d="M 25 0.5 L 62.74227393537464 0.5 L 62.74227393537464 -0.5 L 25 -0.5 Z M 93.0672746983141 0.5 L 130.80954863368873 0.5 L 130.80954863368873 3.5 L 137.80954863368873 0 L 130.80954863368873 -3.5 L 130.80954863368873 -0.5 L 93.0672746983141 -0.5 Z"/><text text-anchor="middle" pointer-events="none" font-size="8px" fill="#000000" x="77.90477431684437" y="3" font-family="sans-serif">STYLE</text></g><g class="relationship" transform="translate(250.15242716779673 -39.87550277113094) rotate(182.50668638498928)"><path class="outline" fill="#A5ABB6" stroke="none" d="M 25 0.5 L 48.089335107093376 0.5 L 48.089335107093376 -0.5 L 25 -0.5 Z M 95.08933510709338 0.5 L 118.17867021418675 0.5 L 118.17867021418675 3.5 L 125.17867021418675 0 L 118.17867021418675 -3.5 L 118.17867021418675 -0.5 L 95.08933510709338 -0.5 Z"/><text text-anchor="middle" pointer-events="none" font-size="8px" fill="#000000" x="71.58933510709338" y="3" transform="rotate(180 71.58933510709338 0)" font-family="sans-serif">CONTAINS</text></g><g class="relationship" transform="translate(250.15242716779673 -39.87550277113094) rotate(470.82838559047127)"><path class="outline" fill="#A5ABB6" stroke="none" d="M 25 0.5 L 98.8353155936193 0.5 L 98.8353155936193 -0.5 L 25 -0.5 Z M 145.8353155936193 0.5 L 219.6706311872386 0.5 L 219.6706311872386 3.5 L 226.6706311872386 0 L 219.6706311872386 -3.5 L 219.6706311872386 -0.5 L 145.8353155936193 -0.5 Z"/><text text-anchor="middle" pointer-events="none" font-size="8px" fill="#000000" x="122.3353155936193" y="3" transform="rotate(180 122.3353155936193 0)" font-family="sans-serif">CONTAINS</text></g><g class="relationship" transform="translate(-14.408897726852839 176.96329669026593) rotate(309.54711700221895)"><path class="outline" fill="#A5ABB6" stroke="none" d="M 25 0.5 L 53.17750539003673 0.5 L 53.17750539003673 -0.5 L 25 -0.5 Z M 100.17750539003673 0.5 L 128.35501078007346 0.5 L 128.35501078007346 3.5 L 135.35501078007346 0 L 128.35501078007346 -3.5 L 128.35501078007346 -0.5 L 100.17750539003673 -0.5 Z"/><text text-anchor="middle" pointer-events="none" font-size="8px" fill="#000000" x="76.67750539003673" y="3" font-family="sans-serif">CONTAINS</text></g><g class="relationship" transform="translate(-14.408897726852839 176.96329669026593) rotate(527.5843806487169)"><path class="outline" fill="#A5ABB6" stroke="none" d="M 25 0.5 L 107.39985407865717 0.5 L 107.39985407865717 -0.5 L 25 -0.5 Z M 137.72485484159662 0.5 L 220.1247089202538 0.5 L 220.1247089202538 3.5 L 227.1247089202538 0 L 220.1247089202538 -3.5 L 220.1247089202538 -0.5 L 137.72485484159662 -0.5 Z"/><text text-anchor="middle" pointer-events="none" font-size="8px" fill="#000000" x="122.5623544601269" y="3" transform="rotate(180 122.5623544601269 0)" font-family="sans-serif">STYLE</text></g><g class="relationship" transform="translate(-14.408897726852839 176.96329669026593) rotate(365.99480875630115)"><path class="outline" fill="#A5ABB6" stroke="none" d="M 25 0.5 L 61.018735334137645 0.5 L 61.018735334137645 -0.5 L 25 -0.5 Z M 108.01873533413765 0.5 L 144.0374706682753 0.5 L 144.0374706682753 3.5 L 151.0374706682753 0 L 144.0374706682753 -3.5 L 144.0374706682753 -0.5 L 108.01873533413765 -0.5 Z"/><text text-anchor="middle" pointer-events="none" font-size="8px" fill="#000000" x="84.51873533413765" y="3" font-family="sans-serif">CONTAINS</text></g><g class="relationship" transform="translate(-83.04726579622725 129.70013997547184) rotate(335.89669837355507)"><path class="outline" fill="#A5ABB6" stroke="none" d="M 25 0.5 L 66.52345765494493 0.5 L 66.52345765494493 -0.5 L 25 -0.5 Z M 113.52345765494493 0.5 L 155.04691530988987 0.5 L 155.04691530988987 3.5 L 162.04691530988987 0 L 155.04691530988987 -3.5 L 155.04691530988987 -0.5 L 113.52345765494493 -0.5 Z"/><text text-anchor="middle" pointer-events="none" font-size="8px" fill="#000000" x="90.02345765494493" y="3" font-family="sans-serif">CONTAINS</text></g><g class="relationship" transform="translate(-83.04726579622725 129.70013997547184) rotate(510.86200166558325)"><path class="outline" fill="#A5ABB6" stroke="none" d="M 25 0.5 L 83.44060353407657 0.5 L 83.44060353407657 -0.5 L 25 -0.5 Z M 113.76560429701603 0.5 L 172.2062078310926 0.5 L 172.2062078310926 3.5 L 179.2062078310926 0 L 172.2062078310926 -3.5 L 172.2062078310926 -0.5 L 113.76560429701603 -0.5 Z"/><text text-anchor="middle" pointer-events="none" font-size="8px" fill="#000000" x="98.6031039155463" y="3" transform="rotate(180 98.6031039155463 0)" font-family="sans-serif">STYLE</text></g></g><g class="layer nodes"><g class="node" transform="translate(87.69114979637742,53.313348133739666)"><circle class="outline" cx="0" cy="0" r="25" fill="#57C7E3" stroke="#23b3d7" stroke-width="2px"/><text text-anchor="middle" pointer-events="none" font-family="sans-serif" dy="1.5625" font-size="25" fill="#2A2C34"/><text text-anchor="middle" pointer-events="none" x="0" y="5" font-size="10px" fill="#2A2C34" font-family="sans-serif"> azacca</text></g><g class="node" transform="translate(430.7672694116684,219.7185030511688)"><circle class="outline" cx="0" cy="0" r="32.5" fill="#F16667" stroke="#eb2728" stroke-width="2px"/><text text-anchor="middle" pointer-events="none" font-family="sans-serif" dy="2.03125" font-size="32.5" fill="#FFFFFF"/><text text-anchor="middle" pointer-events="none" x="0" y="5" font-size="10px" fill="#FFFFFF" font-family="sans-serif"> DIPA</text></g><g class="node" transform="translate(160.66588774234532,195.34836052475197)"><circle class="outline" cx="0" cy="0" r="25" fill="#57C7E3" stroke="#23b3d7" stroke-width="2px"/><text text-anchor="middle" pointer-events="none" font-family="sans-serif" dy="1.5625" font-size="25" fill="#2A2C34"/><text text-anchor="middle" pointer-events="none" x="0" y="5" font-size="10px" fill="#2A2C34" font-family="sans-serif"> mosaic</text></g><g class="node" transform="translate(132.3824229404628,122.07933881161034)"><circle class="outline" cx="0" cy="0" r="25" fill="#57C7E3" stroke="#23b3d7" stroke-width="2px"/><text text-anchor="middle" pointer-events="none" font-family="sans-serif" dy="1.5625" font-size="25" fill="#2A2C34"/><text text-anchor="middle" pointer-events="none" x="0" y="5" font-size="10px" fill="#2A2C34" font-family="sans-serif"> citra</text></g><g class="node" transform="translate(420.41841333019795,-36.02370942831219)"><circle class="outline" cx="0" cy="0" r="32.5" fill="#F16667" stroke="#eb2728" stroke-width="2px"/><text text-anchor="middle" pointer-events="none" font-family="sans-serif" dy="2.03125" font-size="32.5" fill="#FFFFFF"/><text text-anchor="middle" pointer-events="none" x="0" y="5" font-size="10px" fill="#FFFFFF" font-family="sans-serif"> IPA</text></g><g class="node" transform="translate(-267.9619461575696,232.7830164442838)"><circle class="outline" cx="0" cy="0" r="32.5" fill="#F16667" stroke="#eb2728" stroke-width="2px"/><text text-anchor="middle" pointer-events="none" font-family="sans-serif" dy="2.03125" font-size="32.5" fill="#FFFFFF"/><text text-anchor="middle" pointer-events="none" x="0" y="5" font-size="10px" fill="#FFFFFF" font-family="sans-serif"> Pale</text></g><g class="node" transform="translate(100.11745925559563,-46.44371340160359)"><circle class="outline" cx="0" cy="0" r="25" fill="#57C7E3" stroke="#23b3d7" stroke-width="2px"/><text text-anchor="middle" pointer-events="none" font-family="sans-serif" dy="1.5625" font-size="25" fill="#2A2C34"/><text text-anchor="middle" pointer-events="none" x="0" y="5" font-size="10px" fill="#2A2C34" font-family="sans-serif"> dorado</text></g><g class="node" transform="translate(432.1137310554135,94.59071496523715)"><circle class="outline" cx="0" cy="0" r="25" fill="#ECB5C9" stroke="#da7298" stroke-width="2px"/><text text-anchor="middle" pointer-events="none" font-family="sans-serif" dy="1.5625" font-size="25" fill="#2A2C34"/><text text-anchor="middle" pointer-events="none" font-family="sans-serif" dy="1.5625" font-size="25" fill="#2A2C34"/><text text-anchor="middle" pointer-events="none" font-family="sans-serif" dy="1.5625" font-size="25" fill="#2A2C34"/><text text-anchor="middle" pointer-events="none" x="0" y="-5" font-size="10px" fill="#2A2C34" font-family="sans-serif"> Art</text><text text-anchor="middle" pointer-events="none" x="0" y="5" font-size="10px" fill="#2A2C34" font-family="sans-serif"> Deco</text><text text-anchor="middle" pointer-events="none" x="0" y="15" font-size="10px" fill="#2A2C34" font-family="sans-serif"> Stuff</text></g><g class="node" transform="translate(317.83012163896433,23.399106970292237)"><circle class="outline" cx="0" cy="0" r="25" fill="#ECB5C9" stroke="#da7298" stroke-width="2px"/><text text-anchor="middle" pointer-events="none" font-family="sans-serif" dy="1.5625" font-size="25" fill="#2A2C34"/><text text-anchor="middle" pointer-events="none" font-family="sans-serif" dy="1.5625" font-size="25" fill="#2A2C34"/><text text-anchor="middle" pointer-events="none" font-family="sans-serif" dy="1.5625" font-size="25" fill="#2A2C34"/><text text-anchor="middle" pointer-events="none" x="0" y="-5" font-size="10px" fill="#2A2C34" font-family="sans-serif"> Show</text><text text-anchor="middle" pointer-events="none" x="0" y="5" font-size="10px" fill="#2A2C34" font-family="sans-serif"> Your</text><text text-anchor="middle" pointer-events="none" x="0" y="15" font-size="10px" fill="#2A2C34" font-family="sans-serif"> Work</text></g><g class="node" transform="translate(-262.6543715217924,78.78831674279105)"><circle class="outline" cx="0" cy="0" r="25" fill="#ECB5C9" stroke="#da7298" stroke-width="2px"/><text text-anchor="middle" pointer-events="none" font-family="sans-serif" dy="1.5625" font-size="25" fill="#2A2C34"/><text text-anchor="middle" pointer-events="none" font-family="sans-serif" dy="1.5625" font-size="25" fill="#2A2C34"/><text text-anchor="middle" pointer-events="none" font-family="sans-serif" dy="1.5625" font-size="25" fill="#2A2C34"/><text text-anchor="middle" pointer-events="none" x="0" y="-5" font-size="10px" fill="#2A2C34" font-family="sans-serif"> That’s</text><text text-anchor="middle" pointer-events="none" x="0" y="5" font-size="10px" fill="#2A2C34" font-family="sans-serif"> Baseball</text><text text-anchor="middle" pointer-events="none" x="0" y="15" font-size="10px" fill="#2A2C34" font-family="sans-serif"> Baby</text></g><g class="node" transform="translate(250.15242716779673,-39.87550277113094)"><circle class="outline" cx="0" cy="0" r="25" fill="#ECB5C9" stroke="#da7298" stroke-width="2px"/><text text-anchor="middle" pointer-events="none" font-family="sans-serif" dy="1.5625" font-size="25" fill="#2A2C34"/><text text-anchor="middle" pointer-events="none" font-family="sans-serif" dy="1.5625" font-size="25" fill="#2A2C34"/><text text-anchor="middle" pointer-events="none" x="0" y="0" font-size="10px" fill="#2A2C34" font-family="sans-serif"> Treading</text><text text-anchor="middle" pointer-events="none" x="0" y="10" font-size="10px" fill="#2A2C34" font-family="sans-serif"> Water I…</text></g><g class="node" transform="translate(-14.408897726852839,176.96329669026593)"><circle class="outline" cx="0" cy="0" r="25" fill="#ECB5C9" stroke="#da7298" stroke-width="2px"/><text text-anchor="middle" pointer-events="none" font-family="sans-serif" dy="1.5625" font-size="25" fill="#2A2C34"/><text text-anchor="middle" pointer-events="none" x="0" y="5" font-size="10px" fill="#2A2C34" font-family="sans-serif"> Is This It</text></g><g class="node" transform="translate(-83.04726579622725,129.70013997547184)"><circle class="outline" cx="0" cy="0" r="25" fill="#ECB5C9" stroke="#da7298" stroke-width="2px"/><text text-anchor="middle" pointer-events="none" font-family="sans-serif" dy="1.5625" font-size="25" fill="#2A2C34"/><text text-anchor="middle" pointer-events="none" x="0" y="5" font-size="10px" fill="#2A2C34" font-family="sans-serif"> idunno</text></g></g></svg>